<?xml version="1.0" standalone="no"?><!DOCTYPE svg PUBLIC "-//W3C//DTD SVG 1.1//EN" "http://www.w3.org/Graphics/SVG/1.1/DTD/svg11.dtd"><svg class="icon" width="200px" height="200.00px" viewBox="0 0 1024 1024" version="1.1" xmlns="http://www.w3.org/2000/svg"><path fill="#999999" d="M371.5072 518.656H39.2192c-3.9936 0-7.2704-3.2768-7.2704-7.2704s3.2768-7.2704 7.2704-7.2704h31.8464c1.536 0 2.7648-1.2288 2.7648-2.7648v-0.9216c0-1.536-1.2288-2.7648-2.7648-2.7648H2.9696v-4.608h68.096c3.9936 0 7.2704 3.2768 7.2704 7.2704v0.9216c0 3.9936-3.2768 7.2704-7.2704 7.2704H39.2192c-1.536 0-2.7648 1.2288-2.7648 2.7648s1.2288 2.7648 2.7648 2.7648h332.288v4.608zM382.1568 518.656H49.8688c-3.9936 0-7.2704-3.2768-7.2704-7.2704s3.2768-7.2704 7.2704-7.2704h31.8464c1.536 0 2.7648-1.2288 2.7648-2.7648v-0.9216c0-1.536-1.2288-2.7648-2.7648-2.7648H13.6192v-4.608h68.096c3.9936 0 7.2704 3.2768 7.2704 7.2704v0.9216c0 3.9936-3.2768 7.2704-7.2704 7.2704H49.8688c-1.536 0-2.7648 1.2288-2.7648 2.7648s1.2288 2.7648 2.7648 2.7648h332.288v4.608zM984.8832 518.656H652.4928v-4.608h332.3904c1.536 0 2.7648-1.2288 2.7648-2.7648s-1.2288-2.7648-2.7648-2.7648h-31.9488c-3.9936 0-7.2704-3.2768-7.2704-7.2704v-0.9216c0-3.9936 3.2768-7.2704 7.2704-7.2704h68.096v4.608h-68.096a2.6624 2.6624 0 0 0-2.6624 2.7648v0.9216c0 1.536 1.2288 2.7648 2.6624 2.7648h31.9488c3.9936 0 7.2704 3.2768 7.2704 7.2704s-3.2768 7.2704-7.2704 7.2704zM974.2336 518.656H641.9456v-4.608h332.288c1.536 0 2.7648-1.2288 2.7648-2.7648s-1.2288-2.7648-2.7648-2.7648h-31.9488c-3.9936 0-7.2704-3.2768-7.2704-7.2704v-0.9216c0-3.9936 3.2768-7.2704 7.2704-7.2704h68.096v4.608h-68.096a2.6624 2.6624 0 0 0-2.6624 2.7648v0.9216c0 1.536 1.2288 2.7648 2.6624 2.7648h31.9488c3.9936 0 7.2704 3.2768 7.2704 7.2704s-3.2768 7.2704-7.2704 7.2704zM408.1664 530.8416h-28.16v-26.624h4.5056v22.1184h19.1488v-17.92h-13.0048v10.752h4.7104v-6.656h4.5056v11.1616h-13.7216v-19.7632h22.016zM441.6512 530.8416h-28.16v-26.624h4.5056v22.1184h19.1488v-17.92h-13.0048v10.752h4.608v-6.656h4.5056v11.1616h-13.6192v-19.7632h22.016zM475.136 530.8416h-28.16v-26.624h4.5056v22.1184h19.1488v-17.92h-13.0048v10.752h4.608v-6.656h4.5056v11.1616h-13.6192v-19.7632h22.016zM508.6208 530.8416h-28.16v-26.624h4.5056v22.1184h19.1488v-17.92h-13.0048v10.752h4.608v-6.656h4.5056v11.1616h-13.6192v-19.7632h22.016zM542.0032 530.8416h-28.16v-26.624h4.5056v22.1184h19.1488v-17.92h-12.9024v10.752h4.608v-6.656h4.5056v11.1616h-13.6192v-19.7632h21.9136zM575.488 530.8416h-28.16v-26.624h4.5056v22.1184h19.1488v-17.92h-13.0048v10.752h4.608v-6.656h4.5056v11.1616h-13.6192v-19.7632h22.016zM608.9728 530.8416h-28.16v-26.624h4.5056v22.1184h19.1488v-17.92h-13.0048v10.752h4.608v-6.656h4.5056v11.1616h-13.6192v-19.7632h22.016zM642.4576 530.8416h-28.16v-26.624h4.5056v22.1184h19.1488v-17.92h-13.0048v10.752h4.608v-6.656h4.5056v11.1616h-13.6192v-19.7632h22.016z" /></svg>