<?xml version="1.0" encoding="UTF-8"?>
<svg id="Layer_1" xmlns="http://www.w3.org/2000/svg" xmlns:xlink="http://www.w3.org/1999/xlink" version="1.1" viewBox="0 0 130.05 33">
  <!-- Generator: Adobe Illustrator 29.7.1, SVG Export Plug-In . SVG Version: 2.1.1 Build 8)  -->
  <defs>
    <style>
      .st0 {
        mask: url(#mask);
      }

      .st1 {
        fill: url(#linear-gradient2);
      }

      .st2 {
        fill: url(#linear-gradient1);
      }

      .st3 {
        fill: url(#linear-gradient3);
      }

      .st4 {
        fill: url(#linear-gradient);
      }

      .st5 {
        fill: #c4c4c4;
      }

      .st6 {
        fill: #fff;
      }

      .st7 {
        fill: #282828;
      }
    </style>
    <mask id="mask" x="-.81" y="-.58" width="31.64" height="34.48" maskUnits="userSpaceOnUse">
      <g id="mask0_13247_81097">
        <path class="st5" d="M12.27,1.27c1.69-.98,3.78-.98,5.47,0l8.96,5.17c1.69.98,2.74,2.79,2.74,4.74v10.34c0,1.96-1.04,3.76-2.74,4.74l-8.96,5.17c-1.69.98-3.78.98-5.47,0l-8.96-5.17c-1.69-.98-2.74-2.78-2.74-4.74v-10.34c0-1.96,1.04-3.76,2.74-4.74L12.27,1.27Z"/>
      </g>
    </mask>
    <linearGradient id="linear-gradient" x1="15.2" y1="33.15" x2="14.92" y2="22.17" gradientTransform="translate(0 34) scale(1 -1)" gradientUnits="userSpaceOnUse">
      <stop offset="0" stop-color="#ff8fa3"/>
      <stop offset="1" stop-color="#ff7d94"/>
    </linearGradient>
    <linearGradient id="linear-gradient1" x1="10.45" y1="7.11" x2="1.74" y2="17.55" gradientTransform="translate(0 34) scale(1 -1)" gradientUnits="userSpaceOnUse">
      <stop offset="0" stop-color="#ff4c6e"/>
      <stop offset="1" stop-color="#ff8ca0"/>
    </linearGradient>
    <linearGradient id="linear-gradient2" x1="19.87" y1="6.07" x2="28.18" y2="17.19" gradientTransform="translate(0 34) scale(1 -1)" gradientUnits="userSpaceOnUse">
      <stop offset="0" stop-color="#ff4b6e"/>
      <stop offset="1" stop-color="#ff889e"/>
    </linearGradient>
    <linearGradient id="linear-gradient3" x1="15" y1="27.74" x2="15" y2="8.5" gradientTransform="translate(0 34) scale(1 -1)" gradientUnits="userSpaceOnUse">
      <stop offset="0" stop-color="#ff8ca0"/>
      <stop offset="1" stop-color="#f76f88"/>
    </linearGradient>
  </defs>
  <g>
    <path class="st7" d="M45.75,24.56c-2.07.16-4.12-.05-6-.98-2.28-1.12-3.45-2.89-3.58-5.66-.13-2.13.24-4.24,1.2-6.24.48-1.01,1.17-1.91,1.96-2.71,1.43-1.33,3.24-2.26,5.04-2.33,1.49-.05,3.08.61,3.9,1.81.64.93.9,1.89.9,2.89.03,1.14-.27,2.13-.9,2.82-1.14,1.27-1.91,1.27-2.6.83-.66-.45-.74-1.12-.29-1.83.45-.61.61-1.7.51-2.33-.1-.56-.66-1.22-1.43-1.27-1.3-.08-2.5,1.01-3.32,1.81-1.59,1.62-1.94,3.58-1.94,5.66.08,2.65,1.2,3.66,3.77,4.27.93.24,1.91.29,2.89.24,1.49-.1,2.71-.69,3.85-1.59.53-.42,1.22-.03,1.38.42.29.71.24,1.57-.59,2.33-1.43,1.33-3,1.75-4.75,1.89v-.02Z"/>
    <path class="st7" d="M56.63,25.11c-.48.22-1.22.16-1.59-.4-.61-.88-.96-1.59-1.25-2.57-.27-1.01-.53-2.87-.53-4.22,0-1.25.03-1.89.08-3.24.03-1.03.64-2.07,1.91-2.07.53-.03,1.25.37,1.35.93.13.48.19.98.16,1.49.03,1.22.13,2.45.24,3.64.16,1.52.51,2.92.8,4.41.16.98-.32,1.7-1.17,2.04h0ZM55.35,8.52c-.77.03-1.41-.71-1.33-1.89.05-.8.61-1.25,1.2-1.27.9-.08,1.67.69,1.67,1.54s-.85,1.59-1.54,1.62Z"/>
    <path class="st7" d="M67.3,20.36c-.22-.69-.51-1.89-.9-1.89-.61,0-1.17,1.3-1.49,2.1-.48,1.17-.9,2.33-1.41,3.5-.29.66-.85.98-1.57,1.14-.61.16-1.22-.24-1.3-.88-.05-.4-.05-.83-.05-1.25,0-1.12.03-2.2,0-3.32-.05-.83-.19-1.67-.27-2.5-.05-.51-.1-1.03-.05-1.52.05-.53.4-.93.96-1.09s1.25.03,1.54.53c.29.51.51,1.09.74,2.07.34-.42.71-.85.93-1.09.51-.53,1.01-1.03,1.59-1.52.98-.77,2.18-.53,2.79.59.37.66.64,1.41.88,2.1.27.74.53,1.49.83,2.26.32.85.61,1.7.88,2.6s-.05,1.83-1.09,2.1c-.74.19-1.43-.05-1.75-.74-.48-1.01-.9-2.1-1.25-3.21h0Z"/>
    <path class="st7" d="M81.05,22.33c1.09-.13,2.23-.32,3.24-.45.71-.13,1.14.19,1.2.61.08.66-.64,1.33-1.17,1.59-1.96,1.03-4.04,1.62-6.27,1.57-1.64-.05-2.92-.71-3.8-2.07-.8-1.22-1.12-2.31-1.14-3.45-.03-1.54.34-3.11,1.17-4.85.85-1.83,2.47-3.9,4.67-3.9,1.12,0,2.2.56,3.03,1.62.77.98,1.3,2.18,1.3,3.06.03.66-.27,1.3-.83,1.78-1.09.9-2.23,1.75-3.35,2.57-.45.34-.96.64-1.67,1.09.74,1.14,2.5,1.01,3.61.85h0ZM78.93,16.91c.29-.27.51-.64.71-1.01.19-.34-.08-.9-.51-1.22-.32-.24-.88-.24-1.17.05-.85.83-1.49,2.18-1.64,3.61,1.22-.4,1.91-.85,2.6-1.43Z"/>
    <path class="st7" d="M87.66,7.83c.05-.42.05-.85.13-1.27.19-.69.98-.98,1.67-.69.77.34,1.2.85,1.17,1.75,0,1.17-.03,2.36-.03,3.55,0,1.7,0,3.37.03,5.07.1,2.42.32,4.75.8,7.08.24,1.09-.4,1.89-1.46,1.89-.69.03-1.03-.24-1.2-.74-.48-1.35-.71-2.76-.88-4.19-.34-2.87-.45-5.76-.37-8.63.05-1.27.1-2.55.13-3.82Z"/>
    <path class="st7" d="M101.76,23.07c-1.33,1.12-2.87,1.72-4.67,1.64-1.54-.08-2.68-1.27-3.03-2.81-.51-2.15.16-4.67,1.64-6.1.74-.74,1.7-1.2,2.84-1.2,1.3,0,2.23.64,3.11,1.49.88.88,1.41,1.94,1.59,3.13.24,1.52-.32,2.89-1.49,3.85ZM100.22,20.12c.19-1.01-.96-2.71-2.18-2.47-1.52.27-1.38,3.43-.66,3.9.66.48,2.63-.16,2.84-1.43Z"/>
    <path class="st7" d="M111.04,18.64c.34-1.49.69-2.97,1.01-4.46.1-.48.29-.96.56-1.35.32-.45.85-.56,1.38-.37.48.16.85.56.88,1.14,0,.32.03.69-.05,1.01-.45,2.13-.96,4.3-1.57,6.4-.32,1.06-.77,2.07-1.38,3-.51.77-1.27,1.17-2.07,1.14-1.17-.05-2.07-.9-2.55-1.89-1.17-2.39-2.15-4.8-2.63-7.4-.13-.77-.19-1.52.19-2.26.24-.48.69-.8,1.2-.77.56.03,1.03.24,1.25.74.27.61.4,1.27.53,1.94.34,1.7.9,3.29,1.57,4.83.1.22.29.51.61.96.51-.93.9-1.83,1.09-2.65h0Z"/>
    <path class="st7" d="M124.05,22.33c1.09-.13,2.23-.32,3.24-.45.71-.13,1.14.19,1.2.61.08.66-.64,1.33-1.17,1.59-1.96,1.03-4.04,1.62-6.27,1.57-1.64-.05-2.92-.71-3.8-2.07-.8-1.22-1.12-2.31-1.14-3.45-.03-1.54.34-3.11,1.17-4.85.85-1.83,2.47-3.9,4.67-3.9,1.12,0,2.2.56,3.03,1.62.77.98,1.3,2.18,1.3,3.06.03.66-.27,1.3-.83,1.78-1.09.9-2.23,1.75-3.35,2.57-.45.34-.96.64-1.67,1.09.74,1.14,2.5,1.01,3.61.85h0ZM121.93,16.91c.29-.27.51-.64.71-1.01.19-.34-.08-.9-.51-1.22-.32-.24-.88-.24-1.17.05-.85.83-1.49,2.18-1.64,3.61,1.22-.4,1.91-.85,2.6-1.43Z"/>
  </g>
  <g class="st0">
    <g>
      <path class="st4" d="M15.01-.58l15.82,9.13-8.01,4.31-3.31-1.8-3.01.3-7.52-2.71-1.8,2.41-.9,1.2-1.8-1.2L-.81,8.55,15.01-.58Z"/>
      <path class="st2" d="M.45,8.68l6.14,2.98,3.61,8.72v.3l1.2,1.5,5.41,4.21-1.8,7.51L.45,25.49V8.68Z"/>
      <path class="st1" d="M19.81,20.68l3.91-8.42,5.84-3.58v16.81l-14.56,8.4-.3-7.51,5.11-5.71Z"/>
      <path class="st3" d="M15,6.26c-2.49,0-4.75.94-6.46,2.49l1.39,11.94c.38.18,2.55.9,2.97.9h3.01c.53,0,4.21-1.13,4.21-.6l-.3-1.26c0,.53-.43.96-.96.96h-7.7c-.53,0-.96-.43-.96-.96v-4.66c0-.42-.09-.83-.27-1.21l-1.39-5.11c-1.55,1.71-3.16,4.64-3.16,7.13,0,5.31,4.31,9.62,9.62,9.62s9.62-4.31,9.62-9.62-4.31-9.62-9.62-9.62Z"/>
      <g>
        <path class="st6" d="M17.46,21.8c-1.5.4-3.03.55-4.53.18-1.82-.44-2.92-1.5-3.39-3.38-.38-1.44-.39-2.96.04-4.47.22-.76.6-1.48,1.08-2.15.87-1.12,2.07-2.02,3.39-2.33,1.08-.25,2.34-.02,3.1.69.59.55.91,1.17,1.05,1.86.17.78.09,1.5-.29,2.07-.67,1.04-1.23,1.15-1.8.94-.55-.22-.69-.66-.46-1.22.25-.48.22-1.26.06-1.68-.15-.37-.65-.75-1.22-.67-.97.13-1.7,1.05-2.19,1.72-.95,1.34-.94,2.74-.66,4.17.41,1.82,1.37,2.35,3.34,2.41.71.03,1.44-.07,2.15-.25,1.08-.29,1.89-.86,2.61-1.65.33-.37.89-.19,1.07.1.31.45.38,1.04-.12,1.69-.87,1.12-1.97,1.63-3.23,1.98Z"/>
        <path class="st6" d="M17.14,21.8c-1.5.4-3.03.55-4.53.18-1.82-.44-2.92-1.5-3.39-3.38-.38-1.44-.39-2.96.04-4.47.22-.76.6-1.48,1.08-2.15.87-1.12,2.07-2.02,3.39-2.33,1.08-.25,2.34-.02,3.1.69.59.55.91,1.17,1.05,1.86.17.78.09,1.5-.29,2.07-.67,1.04-1.23,1.15-1.8.94-.55-.22-.69-.66-.46-1.22.25-.48.22-1.26.06-1.68-.15-.37-.65-.75-1.22-.67-.97.13-1.7,1.05-2.19,1.72-.95,1.34-.94,2.74-.66,4.17.41,1.82,1.37,2.35,3.34,2.41.71.03,1.44-.07,2.15-.25,1.08-.29,1.89-.86,2.61-1.65.33-.37.89-.19,1.07.1.31.45.38,1.04-.12,1.69-.87,1.12-1.97,1.63-3.23,1.98Z"/>
      </g>
    </g>
  </g>
</svg>