<svg width="26" height="26" viewBox="0 0 26 26" fill="none" xmlns="http://www.w3.org/2000/svg">
<path d="M4.5 9.99414L6.9375 11.0254C7.22917 10.4421 7.53125 9.87956 7.84375 9.33789C8.15625 8.79622 8.5 8.25456 8.875 7.71289L7.125 7.36914L4.5 9.99414ZM8.9375 12.5879L12.5 16.1191C13.375 15.7858 14.3125 15.2754 15.3125 14.5879C16.3125 13.9004 17.25 13.1191 18.125 12.2441C19.5833 10.7858 20.724 9.16602 21.5469 7.38477C22.3698 5.60352 22.7292 3.96289 22.625 2.46289C21.125 2.35872 19.4792 2.7181 17.6875 3.54102C15.8958 4.36393 14.2708 5.50456 12.8125 6.96289C11.9375 7.83789 11.1562 8.77539 10.4688 9.77539C9.78125 10.7754 9.27083 11.7129 8.9375 12.5879ZM14.5 10.5566C14.0208 10.0775 13.7812 9.48893 13.7812 8.79102C13.7812 8.0931 14.0208 7.50456 14.5 7.02539C14.9792 6.54622 15.5729 6.30664 16.2812 6.30664C16.9896 6.30664 17.5833 6.54622 18.0625 7.02539C18.5417 7.50456 18.7812 8.0931 18.7812 8.79102C18.7812 9.48893 18.5417 10.0775 18.0625 10.5566C17.5833 11.0358 16.9896 11.2754 16.2812 11.2754C15.5729 11.2754 14.9792 11.0358 14.5 10.5566ZM15.0938 20.5879L17.7188 17.9629L17.375 16.2129C16.8333 16.5879 16.2917 16.9264 15.75 17.2285C15.2083 17.5306 14.6458 17.8275 14.0625 18.1191L15.0938 20.5879ZM24.875 0.181641C25.2708 2.70247 25.026 5.1556 24.1406 7.54102C23.2552 9.92643 21.7292 12.2025 19.5625 14.3691L20.1875 17.4629C20.2708 17.8796 20.25 18.2858 20.125 18.6816C20 19.0775 19.7917 19.4212 19.5 19.7129L14.25 24.9629L11.625 18.8066L6.28125 13.4629L0.125 10.8379L5.34375 5.58789C5.63542 5.29622 5.98438 5.08789 6.39062 4.96289C6.79688 4.83789 7.20833 4.81706 7.625 4.90039L10.7188 5.52539C12.8854 3.35872 15.1562 1.82747 17.5312 0.931641C19.9062 0.0358067 22.3542 -0.214193 24.875 0.181641ZM2.34375 17.4316C3.07292 16.7025 3.96354 16.3327 5.01562 16.3223C6.06771 16.3118 6.95833 16.6712 7.6875 17.4004C8.41667 18.1296 8.77604 19.0202 8.76562 20.0723C8.75521 21.1243 8.38542 22.015 7.65625 22.7441C7.13542 23.265 6.26562 23.7129 5.04688 24.0879C3.82812 24.4629 2.14583 24.7962 0 25.0879C0.291667 22.9421 0.625 21.2598 1 20.041C1.375 18.8223 1.82292 17.9525 2.34375 17.4316ZM4.125 19.1816C3.91667 19.39 3.70833 19.7702 3.5 20.3223C3.29167 20.8743 3.14583 21.4316 3.0625 21.9941C3.625 21.9108 4.18229 21.7702 4.73438 21.5723C5.28646 21.3743 5.66667 21.1712 5.875 20.9629C6.125 20.7129 6.26042 20.4108 6.28125 20.0566C6.30208 19.7025 6.1875 19.4004 5.9375 19.1504C5.6875 18.9004 5.38542 18.7806 5.03125 18.791C4.67708 18.8014 4.375 18.9316 4.125 19.1816Z" fill="#6366F1"/>
</svg>
