<svg width="25" height="24" viewBox="0 0 25 24" fill="none" xmlns="http://www.w3.org/2000/svg">
<path d="M17.5 11.25C17.8542 11.25 18.151 11.1302 18.3906 10.8906C18.6302 10.651 18.75 10.3542 18.75 10C18.75 9.64583 18.6302 9.34896 18.3906 9.10938C18.151 8.86979 17.8542 8.75 17.5 8.75C17.1458 8.75 16.849 8.86979 16.6094 9.10938C16.3698 9.34896 16.25 9.64583 16.25 10C16.25 10.3542 16.3698 10.651 16.6094 10.8906C16.849 11.1302 17.1458 11.25 17.5 11.25ZM7.5 8.75H13.75V6.25H7.5V8.75ZM3.125 23.75C2.41667 21.375 1.71875 19.0052 1.03125 16.6406C0.34375 14.276 0 11.8542 0 9.375C0 7.45833 0.666667 5.83333 2 4.5C3.33333 3.16667 4.95833 2.5 6.875 2.5H13.125C13.7292 1.70833 14.4635 1.09375 15.3281 0.65625C16.1927 0.21875 17.125 0 18.125 0C18.6458 0 19.0885 0.182291 19.4531 0.546875C19.8177 0.911459 20 1.35417 20 1.875C20 2 19.9844 2.125 19.9531 2.25C19.9219 2.375 19.8854 2.48958 19.8438 2.59375C19.7604 2.82292 19.6823 3.05729 19.6094 3.29688C19.5365 3.53646 19.4792 3.78125 19.4375 4.03125L22.2812 6.875H25V15.5938L21.4688 16.75L19.375 23.75H12.5V21.25H10V23.75H3.125ZM5 21.25H7.5V18.75H15V21.25H17.5L19.4375 14.8125L22.5 13.7812V9.375H21.25L16.875 5C16.875 4.58333 16.901 4.18229 16.9531 3.79688C17.0052 3.41146 17.0833 3.02083 17.1875 2.625C16.5833 2.79167 16.0521 3.07812 15.5938 3.48438C15.1354 3.89062 14.8021 4.39583 14.5938 5H6.875C5.66667 5 4.63542 5.42708 3.78125 6.28125C2.92708 7.13542 2.5 8.16667 2.5 9.375C2.5 11.4167 2.78125 13.4115 3.34375 15.3594C3.90625 17.3073 4.45833 19.2708 5 21.25Z" fill="#A855F7"/>
</svg>
