<svg width="136" height="136" viewBox="0 0 136 136" fill="none" xmlns="http://www.w3.org/2000/svg">
<g filter="url(#filter0_dd_1039_28836)">
<g clip-path="url(#clip0_1039_28836)">
<rect x="20" width="96" height="96" rx="48" fill="white"/>
<g filter="url(#filter1_d_1039_28836)">
<path d="M59.9306 58.2L53.0417 51.4L55.47 49.003L59.9306 53.389L71.28 42.186L73.7083 44.6M63.375 34.4C63.8318 34.4 64.2698 34.5791 64.5928 34.8979C64.9158 35.2167 65.0972 35.6491 65.0972 36.1C65.0972 36.5509 64.9158 36.9833 64.5928 37.3021C64.2698 37.6209 63.8318 37.8 63.375 37.8C62.9182 37.8 62.4802 37.6209 62.1572 37.3021C61.8342 36.9833 61.6528 36.5509 61.6528 36.1C61.6528 35.6491 61.8342 35.2167 62.1572 34.8979C62.4802 34.5791 62.9182 34.4 63.375 34.4ZM75.4306 34.4H68.2317C67.5083 32.428 65.6139 31 63.375 31C61.1361 31 59.2417 32.428 58.5183 34.4H51.3194C50.4059 34.4 49.5298 34.7582 48.8839 35.3958C48.2379 36.0335 47.875 36.8983 47.875 37.8V61.6C47.875 62.5017 48.2379 63.3665 48.8839 64.0042C49.5298 64.6418 50.4059 65 51.3194 65H75.4306C76.3441 65 77.2202 64.6418 77.8661 64.0042C78.5121 63.3665 78.875 62.5017 78.875 61.6V37.8C78.875 36.8983 78.5121 36.0335 77.8661 35.3958C77.2202 34.7582 76.3441 34.4 75.4306 34.4Z" fill="url(#paint0_linear_1039_28836)"/>
</g>
<path d="M24.375 48C24.375 22.5949 44.9699 2 70.375 2C95.7801 2 116.375 22.5949 116.375 48C116.375 73.4051 95.7801 94 70.375 94C44.9699 94 24.375 73.4051 24.375 48Z" fill="url(#paint1_linear_1039_28836)"/>
</g>
<rect x="21" y="1" width="94" height="94" rx="47" stroke="#E0E7FF" stroke-width="2"/>
</g>
<defs>
<filter id="filter0_dd_1039_28836" x="0" y="0" width="136" height="136" filterUnits="userSpaceOnUse" color-interpolation-filters="sRGB">
<feFlood flood-opacity="0" result="BackgroundImageFix"/>
<feColorMatrix in="SourceAlpha" type="matrix" values="0 0 0 0 0 0 0 0 0 0 0 0 0 0 0 0 0 0 127 0" result="hardAlpha"/>
<feMorphology radius="6" operator="erode" in="SourceAlpha" result="effect1_dropShadow_1039_28836"/>
<feOffset dy="8"/>
<feGaussianBlur stdDeviation="5"/>
<feComposite in2="hardAlpha" operator="out"/>
<feColorMatrix type="matrix" values="0 0 0 0 0 0 0 0 0 0 0 0 0 0 0 0 0 0 0.1 0"/>
<feBlend mode="normal" in2="BackgroundImageFix" result="effect1_dropShadow_1039_28836"/>
<feColorMatrix in="SourceAlpha" type="matrix" values="0 0 0 0 0 0 0 0 0 0 0 0 0 0 0 0 0 0 127 0" result="hardAlpha"/>
<feMorphology radius="5" operator="erode" in="SourceAlpha" result="effect2_dropShadow_1039_28836"/>
<feOffset dy="20"/>
<feGaussianBlur stdDeviation="12.5"/>
<feComposite in2="hardAlpha" operator="out"/>
<feColorMatrix type="matrix" values="0 0 0 0 0 0 0 0 0 0 0 0 0 0 0 0 0 0 0.1 0"/>
<feBlend mode="normal" in2="effect1_dropShadow_1039_28836" result="effect2_dropShadow_1039_28836"/>
<feBlend mode="normal" in="SourceGraphic" in2="effect2_dropShadow_1039_28836" result="shape"/>
</filter>
<filter id="filter1_d_1039_28836" x="41.875" y="27" width="43" height="46" filterUnits="userSpaceOnUse" color-interpolation-filters="sRGB">
<feFlood flood-opacity="0" result="BackgroundImageFix"/>
<feColorMatrix in="SourceAlpha" type="matrix" values="0 0 0 0 0 0 0 0 0 0 0 0 0 0 0 0 0 0 127 0" result="hardAlpha"/>
<feOffset dy="2"/>
<feGaussianBlur stdDeviation="3"/>
<feComposite in2="hardAlpha" operator="out"/>
<feColorMatrix type="matrix" values="0 0 0 0 0.560784 0 0 0 0 0.545098 0 0 0 0 1 0 0 0 0.3 0"/>
<feBlend mode="normal" in2="BackgroundImageFix" result="effect1_dropShadow_1039_28836"/>
<feBlend mode="normal" in="SourceGraphic" in2="effect1_dropShadow_1039_28836" result="shape"/>
</filter>
<linearGradient id="paint0_linear_1039_28836" x1="63.375" y1="31" x2="63.375" y2="65" gradientUnits="userSpaceOnUse">
<stop stop-color="#2563EB"/>
<stop offset="0.5" stop-color="#5C4BEB"/>
<stop offset="0.75" stop-color="#783FEA"/>
<stop offset="1" stop-color="#9333EA"/>
</linearGradient>
<linearGradient id="paint1_linear_1039_28836" x1="22.375" y1="94" x2="114.375" y2="2" gradientUnits="userSpaceOnUse">
<stop stop-color="#6366F1" stop-opacity="0.1"/>
<stop offset="1" stop-color="#A855F7" stop-opacity="0.1"/>
</linearGradient>
<clipPath id="clip0_1039_28836">
<rect x="20" width="96" height="96" rx="48" fill="white"/>
</clipPath>
</defs>
</svg>
