<svg width="136" height="136" viewBox="0 0 136 136" fill="none" xmlns="http://www.w3.org/2000/svg">
<g filter="url(#filter0_dd_1039_28851)">
<rect x="20" width="96" height="96" rx="48" fill="white"/>
<rect x="21" y="1" width="94" height="94" rx="47" stroke="#E0E7FF" stroke-width="2"/>
<path d="M61.9511 27.832C59.231 27.831 56.5866 28.727 54.4283 30.381C52.27 32.0351 50.7185 34.3546 50.0146 36.9797C49.3106 39.6049 49.4936 42.3887 50.5352 44.8993C51.5767 47.4099 53.4185 49.5068 55.7748 50.8645V60.2287H68.1273V53.2866H73.5315V47.1158H77.3917C75.0756 37.8596 72.7595 27.832 61.9511 27.832Z" fill="url(#paint0_linear_1039_28851)"/>
<path d="M68.1273 60.2287V53.2866H73.5315V47.1158H77.3917C75.0756 37.8596 72.7595 27.832 61.9511 27.832C59.231 27.831 56.5866 28.727 54.4283 30.381C52.27 32.0351 50.7185 34.3546 50.0146 36.9797C49.3106 39.6049 49.4936 42.3887 50.5352 44.8993C51.5767 47.4099 53.4185 49.5068 55.7748 50.8645V60.2287" stroke="#4147D5" stroke-width="1.5"/>
<path d="M64.0173 33.6328L64.7863 36.0317L67.249 35.4964L69.1791 38.8348L67.5548 40.6984L69.1776 42.562L67.249 45.9004L64.7863 45.365L64.0189 47.7639H60.1603L59.3929 45.365L56.9301 45.9004L55 42.562L56.6244 40.6984L55 38.8348L56.9301 35.4964L59.3929 36.0317L60.1603 33.6328H64.0173Z" fill="white"/>
<path d="M64.0173 33.6328L64.7863 36.0317L67.249 35.4964L69.1791 38.8348L67.5548 40.6984L69.1776 42.562L67.249 45.9004L64.7863 45.365L64.0189 47.7639H60.1603L59.3929 45.365L56.9301 45.9004L55 42.562L56.6244 40.6984L55 38.8348L56.9301 35.4964L59.3929 36.0317L60.1603 33.6328H64.0173Z" stroke="#4147D5" stroke-width="1.5"/>
<path d="M62.0929 41.6879C62.3558 41.6879 62.6079 41.5835 62.7938 41.3978C62.9797 41.212 63.0841 40.9601 63.0841 40.6974C63.0841 40.4348 62.9797 40.1829 62.7938 39.9971C62.6079 39.8114 62.3558 39.707 62.0929 39.707M62.0929 41.6879C61.8299 41.6879 61.5778 41.5835 61.3919 41.3978C61.206 41.212 61.1016 40.9601 61.1016 40.6974C61.1016 40.4348 61.206 40.1829 61.3919 39.9971C61.5778 39.8114 61.8299 39.707 62.0929 39.707" stroke="#4147D5" stroke-width="1.5"/>
<rect x="22" y="2" width="92" height="92" rx="46" fill="url(#paint1_linear_1039_28851)"/>
</g>
<defs>
<filter id="filter0_dd_1039_28851" x="0" y="0" width="136" height="136" filterUnits="userSpaceOnUse" color-interpolation-filters="sRGB">
<feFlood flood-opacity="0" result="BackgroundImageFix"/>
<feColorMatrix in="SourceAlpha" type="matrix" values="0 0 0 0 0 0 0 0 0 0 0 0 0 0 0 0 0 0 127 0" result="hardAlpha"/>
<feMorphology radius="6" operator="erode" in="SourceAlpha" result="effect1_dropShadow_1039_28851"/>
<feOffset dy="8"/>
<feGaussianBlur stdDeviation="5"/>
<feComposite in2="hardAlpha" operator="out"/>
<feColorMatrix type="matrix" values="0 0 0 0 0 0 0 0 0 0 0 0 0 0 0 0 0 0 0.1 0"/>
<feBlend mode="normal" in2="BackgroundImageFix" result="effect1_dropShadow_1039_28851"/>
<feColorMatrix in="SourceAlpha" type="matrix" values="0 0 0 0 0 0 0 0 0 0 0 0 0 0 0 0 0 0 127 0" result="hardAlpha"/>
<feMorphology radius="5" operator="erode" in="SourceAlpha" result="effect2_dropShadow_1039_28851"/>
<feOffset dy="20"/>
<feGaussianBlur stdDeviation="12.5"/>
<feComposite in2="hardAlpha" operator="out"/>
<feColorMatrix type="matrix" values="0 0 0 0 0 0 0 0 0 0 0 0 0 0 0 0 0 0 0.1 0"/>
<feBlend mode="normal" in2="effect1_dropShadow_1039_28851" result="effect2_dropShadow_1039_28851"/>
<feBlend mode="normal" in="SourceGraphic" in2="effect2_dropShadow_1039_28851" result="shape"/>
</filter>
<linearGradient id="paint0_linear_1039_28851" x1="63.4927" y1="60.2287" x2="63.4927" y2="27.832" gradientUnits="userSpaceOnUse">
<stop stop-color="#2563EB"/>
<stop offset="0.25" stop-color="#4157EB"/>
<stop offset="0.5" stop-color="#5C4BEB"/>
<stop offset="1" stop-color="#9333EA"/>
</linearGradient>
<linearGradient id="paint1_linear_1039_28851" x1="22" y1="94" x2="114" y2="2" gradientUnits="userSpaceOnUse">
<stop stop-color="#6366F1" stop-opacity="0.1"/>
<stop offset="1" stop-color="#A855F7" stop-opacity="0.1"/>
</linearGradient>
</defs>
</svg>
