<svg width="136" height="136" viewBox="0 0 136 136" fill="none" xmlns="http://www.w3.org/2000/svg">
<g filter="url(#filter0_dd_1039_28870)">
<rect x="20" width="96" height="96" rx="48" fill="white"/>
<rect x="21" y="1" width="94" height="94" rx="47" stroke="#E0E7FF" stroke-width="2"/>
<path d="M56.875 61.5C55.75 61.5 54.6375 61.225 53.5375 60.675C52.4375 60.125 51.55 59.4 50.875 58.5C51.525 58.5 52.1875 58.2437 52.8625 57.7312C53.5375 57.2188 53.875 56.475 53.875 55.5C53.875 54.25 54.3125 53.1875 55.1875 52.3125C56.0625 51.4375 57.125 51 58.375 51C59.625 51 60.6875 51.4375 61.5625 52.3125C62.4375 53.1875 62.875 54.25 62.875 55.5C62.875 57.15 62.2875 58.5625 61.1125 59.7375C59.9375 60.9125 58.525 61.5 56.875 61.5ZM56.875 58.5C57.7 58.5 58.4063 58.2062 58.9938 57.6187C59.5813 57.0312 59.875 56.325 59.875 55.5C59.875 55.075 59.7313 54.7187 59.4438 54.4312C59.1562 54.1437 58.8 54 58.375 54C57.95 54 57.5938 54.1437 57.3063 54.4312C57.0188 54.7187 56.875 55.075 56.875 55.5C56.875 56.075 56.8063 56.6 56.6688 57.075C56.5312 57.55 56.35 58 56.125 58.425C56.25 58.475 56.375 58.5 56.5 58.5C56.625 58.5 56.75 58.5 56.875 58.5ZM65.5 52.5L61.375 48.375L74.8 34.95C75.075 34.675 75.4188 34.5312 75.8313 34.5187C76.2438 34.5062 76.6 34.65 76.9 34.95L78.925 36.975C79.225 37.275 79.375 37.625 79.375 38.025C79.375 38.425 79.225 38.775 78.925 39.075L65.5 52.5Z" fill="url(#paint0_linear_1039_28870)"/>
<rect x="22" y="2" width="92" height="92" rx="46" fill="url(#paint1_linear_1039_28870)"/>
</g>
<defs>
<filter id="filter0_dd_1039_28870" x="0" y="0" width="136" height="136" filterUnits="userSpaceOnUse" color-interpolation-filters="sRGB">
<feFlood flood-opacity="0" result="BackgroundImageFix"/>
<feColorMatrix in="SourceAlpha" type="matrix" values="0 0 0 0 0 0 0 0 0 0 0 0 0 0 0 0 0 0 127 0" result="hardAlpha"/>
<feMorphology radius="6" operator="erode" in="SourceAlpha" result="effect1_dropShadow_1039_28870"/>
<feOffset dy="8"/>
<feGaussianBlur stdDeviation="5"/>
<feComposite in2="hardAlpha" operator="out"/>
<feColorMatrix type="matrix" values="0 0 0 0 0 0 0 0 0 0 0 0 0 0 0 0 0 0 0.1 0"/>
<feBlend mode="normal" in2="BackgroundImageFix" result="effect1_dropShadow_1039_28870"/>
<feColorMatrix in="SourceAlpha" type="matrix" values="0 0 0 0 0 0 0 0 0 0 0 0 0 0 0 0 0 0 127 0" result="hardAlpha"/>
<feMorphology radius="5" operator="erode" in="SourceAlpha" result="effect2_dropShadow_1039_28870"/>
<feOffset dy="20"/>
<feGaussianBlur stdDeviation="12.5"/>
<feComposite in2="hardAlpha" operator="out"/>
<feColorMatrix type="matrix" values="0 0 0 0 0 0 0 0 0 0 0 0 0 0 0 0 0 0 0.1 0"/>
<feBlend mode="normal" in2="effect1_dropShadow_1039_28870" result="effect2_dropShadow_1039_28870"/>
<feBlend mode="normal" in="SourceGraphic" in2="effect2_dropShadow_1039_28870" result="shape"/>
</filter>
<linearGradient id="paint0_linear_1039_28870" x1="65.125" y1="34.518" x2="65.125" y2="61.5" gradientUnits="userSpaceOnUse">
<stop offset="0.75" stop-color="#783FEA"/>
<stop offset="1" stop-color="#9333EA"/>
</linearGradient>
<linearGradient id="paint1_linear_1039_28870" x1="22" y1="94" x2="114" y2="2" gradientUnits="userSpaceOnUse">
<stop stop-color="#6366F1" stop-opacity="0.1"/>
<stop offset="1" stop-color="#A855F7" stop-opacity="0.1"/>
</linearGradient>
</defs>
</svg>
