<svg width="136" height="136" viewBox="0 0 136 136" fill="none" xmlns="http://www.w3.org/2000/svg">
<g filter="url(#filter0_dd_1039_28883)">
<g clip-path="url(#clip0_1039_28883)">
<rect x="20" width="96" height="96" rx="48" fill="white"/>
<path d="M56.3492 50.0379L59.2742 51.2754C59.6242 50.5754 59.9867 49.9004 60.3617 49.2504C60.7367 48.6004 61.1492 47.9504 61.5992 47.3004L59.4992 46.8879L56.3492 50.0379ZM61.6742 53.1504L65.9492 57.3879C66.9992 56.9879 68.1242 56.3754 69.3242 55.5504C70.5242 54.7254 71.6492 53.7879 72.6992 52.7379C74.4492 50.9879 75.818 49.0441 76.8055 46.9066C77.793 44.7691 78.2242 42.8004 78.0992 41.0004C76.2992 40.8754 74.3242 41.3066 72.1742 42.2941C70.0242 43.2816 68.0742 44.6504 66.3242 46.4004C65.2742 47.4504 64.3367 48.5754 63.5117 49.7754C62.6867 50.9754 62.0742 52.1004 61.6742 53.1504ZM68.3492 50.7129C67.7742 50.1379 67.4867 49.4316 67.4867 48.5941C67.4867 47.7566 67.7742 47.0504 68.3492 46.4754C68.9242 45.9004 69.6367 45.6129 70.4867 45.6129C71.3367 45.6129 72.0492 45.9004 72.6242 46.4754C73.1992 47.0504 73.4867 47.7566 73.4867 48.5941C73.4867 49.4316 73.1992 50.1379 72.6242 50.7129C72.0492 51.2879 71.3367 51.5754 70.4867 51.5754C69.6367 51.5754 68.9242 51.2879 68.3492 50.7129ZM69.0617 62.7504L72.2117 59.6004L71.7992 57.5004C71.1492 57.9504 70.4992 58.3566 69.8492 58.7191C69.1992 59.0816 68.5242 59.4379 67.8242 59.7879L69.0617 62.7504ZM80.7992 38.2629C81.2742 41.2879 80.9805 44.2316 79.918 47.0941C78.8555 49.9566 77.0242 52.6879 74.4242 55.2879L75.1742 59.0004C75.2742 59.5004 75.2492 59.9879 75.0992 60.4629C74.9492 60.9379 74.6992 61.3504 74.3492 61.7004L68.0492 68.0004L64.8992 60.6129L58.4867 54.2004L51.0992 51.0504L57.3617 44.7504C57.7117 44.4004 58.1305 44.1504 58.618 44.0004C59.1055 43.8504 59.5992 43.8254 60.0992 43.9254L63.8117 44.6754C66.4117 42.0754 69.1367 40.2379 71.9867 39.1629C74.8367 38.0879 77.7742 37.7879 80.7992 38.2629ZM53.7617 58.9629C54.6367 58.0879 55.7055 57.6441 56.968 57.6316C58.2305 57.6191 59.2992 58.0504 60.1742 58.9254C61.0492 59.8004 61.4805 60.8691 61.468 62.1316C61.4555 63.3941 61.0117 64.4629 60.1367 65.3379C59.5117 65.9629 58.468 66.5004 57.0055 66.9504C55.543 67.4004 53.5242 67.8004 50.9492 68.1504C51.2992 65.5754 51.6992 63.5566 52.1492 62.0941C52.5992 60.6316 53.1367 59.5879 53.7617 58.9629ZM55.8992 61.0629C55.6492 61.3129 55.3992 61.7691 55.1492 62.4316C54.8992 63.0941 54.7242 63.7629 54.6242 64.4379C55.2992 64.3379 55.968 64.1691 56.6305 63.9316C57.293 63.6941 57.7492 63.4504 57.9992 63.2004C58.2992 62.9004 58.4617 62.5379 58.4867 62.1129C58.5117 61.6879 58.3742 61.3254 58.0742 61.0254C57.7742 60.7254 57.4117 60.5816 56.9867 60.5941C56.5617 60.6066 56.1992 60.7629 55.8992 61.0629Z" fill="url(#paint0_linear_1039_28883)"/>
<path d="M24.375 48C24.375 22.5949 44.9699 2 70.375 2C95.7801 2 116.375 22.5949 116.375 48C116.375 73.4051 95.7801 94 70.375 94C44.9699 94 24.375 73.4051 24.375 48Z" fill="url(#paint1_linear_1039_28883)"/>
</g>
<rect x="21" y="1" width="94" height="94" rx="47" stroke="#E0E7FF" stroke-width="2"/>
</g>
<defs>
<filter id="filter0_dd_1039_28883" x="0" y="0" width="136" height="136" filterUnits="userSpaceOnUse" color-interpolation-filters="sRGB">
<feFlood flood-opacity="0" result="BackgroundImageFix"/>
<feColorMatrix in="SourceAlpha" type="matrix" values="0 0 0 0 0 0 0 0 0 0 0 0 0 0 0 0 0 0 127 0" result="hardAlpha"/>
<feMorphology radius="6" operator="erode" in="SourceAlpha" result="effect1_dropShadow_1039_28883"/>
<feOffset dy="8"/>
<feGaussianBlur stdDeviation="5"/>
<feComposite in2="hardAlpha" operator="out"/>
<feColorMatrix type="matrix" values="0 0 0 0 0 0 0 0 0 0 0 0 0 0 0 0 0 0 0.1 0"/>
<feBlend mode="normal" in2="BackgroundImageFix" result="effect1_dropShadow_1039_28883"/>
<feColorMatrix in="SourceAlpha" type="matrix" values="0 0 0 0 0 0 0 0 0 0 0 0 0 0 0 0 0 0 127 0" result="hardAlpha"/>
<feMorphology radius="5" operator="erode" in="SourceAlpha" result="effect2_dropShadow_1039_28883"/>
<feOffset dy="20"/>
<feGaussianBlur stdDeviation="12.5"/>
<feComposite in2="hardAlpha" operator="out"/>
<feColorMatrix type="matrix" values="0 0 0 0 0 0 0 0 0 0 0 0 0 0 0 0 0 0 0.1 0"/>
<feBlend mode="normal" in2="effect1_dropShadow_1039_28883" result="effect2_dropShadow_1039_28883"/>
<feBlend mode="normal" in="SourceGraphic" in2="effect2_dropShadow_1039_28883" result="shape"/>
</filter>
<linearGradient id="paint0_linear_1039_28883" x1="65.9843" y1="38.0445" x2="65.9843" y2="68.1504" gradientUnits="userSpaceOnUse">
<stop stop-color="#2563EB"/>
<stop offset="0.5" stop-color="#5C4BEB"/>
</linearGradient>
<linearGradient id="paint1_linear_1039_28883" x1="22.375" y1="94" x2="114.375" y2="2" gradientUnits="userSpaceOnUse">
<stop stop-color="#6366F1" stop-opacity="0.1"/>
<stop offset="1" stop-color="#A855F7" stop-opacity="0.1"/>
</linearGradient>
<clipPath id="clip0_1039_28883">
<rect x="20" width="96" height="96" rx="48" fill="white"/>
</clipPath>
</defs>
</svg>
