<svg width="30" height="28" viewBox="0 0 30 28" fill="none" xmlns="http://www.w3.org/2000/svg">
<rect x="2.15625" width="27.7786" height="1.93676" fill="url(#paint0_linear_935_4450)"/>
<rect x="2.15625" y="5.14648" width="9.07508" height="1.93676" fill="url(#paint1_linear_935_4450)"/>
<rect x="18.7031" y="5.14648" width="9.07508" height="1.93676" fill="url(#paint2_linear_935_4450)"/>
<rect x="10.6797" y="26.0635" width="8.57706" height="1.93676" fill="url(#paint3_linear_935_4450)"/>
<rect x="27.7734" y="7.08301" width="7.08299" height="2.1581" transform="rotate(-90 27.7734 7.08301)" fill="url(#paint4_linear_935_4450)"/>
<rect x="17.1562" y="26.0635" width="16.2687" height="2.10276" transform="rotate(-90 17.1562 26.0635)" fill="url(#paint5_linear_935_4450)"/>
<rect x="10.6797" y="26.0635" width="16.2687" height="2.10276" transform="rotate(-90 10.6797 26.0635)" fill="url(#paint6_linear_935_4450)"/>
<rect y="7.08301" width="7.08299" height="2.1581" transform="rotate(-90 0 7.08301)" fill="url(#paint7_linear_935_4450)"/>
<path d="M18.707 5.14648L10.6833 9.7947L12.7861 10.7354L19.0391 7.08324L18.707 5.14648Z" fill="url(#paint8_linear_935_4450)"/>
<path d="M11.2305 5.14648L19.2542 9.7947L17.1514 10.7354L10.8984 7.08324L11.2305 5.14648Z" fill="url(#paint9_linear_935_4450)"/>
<defs>
<linearGradient id="paint0_linear_935_4450" x1="2.15625" y1="0.968378" x2="29.9349" y2="0.968378" gradientUnits="userSpaceOnUse">
<stop stop-color="#6C30D7"/>
<stop offset="1" stop-color="#7E22CE"/>
</linearGradient>
<linearGradient id="paint1_linear_935_4450" x1="2.15625" y1="6.11486" x2="11.2313" y2="6.11486" gradientUnits="userSpaceOnUse">
<stop stop-color="#593FE0"/>
<stop offset="1" stop-color="#534CE7"/>
</linearGradient>
<linearGradient id="paint2_linear_935_4450" x1="18.7031" y1="6.11486" x2="27.7782" y2="6.11486" gradientUnits="userSpaceOnUse">
<stop stop-color="#593FE0"/>
<stop offset="1" stop-color="#6C30D7"/>
</linearGradient>
<linearGradient id="paint3_linear_935_4450" x1="10.6797" y1="27.0319" x2="19.2567" y2="27.0319" gradientUnits="userSpaceOnUse">
<stop stop-color="#5B59EC"/>
<stop offset="1" stop-color="#6366F1"/>
</linearGradient>
<linearGradient id="paint4_linear_935_4450" x1="34.8564" y1="8.16206" x2="27.7734" y2="8.16206" gradientUnits="userSpaceOnUse">
<stop stop-color="#7E22CE"/>
<stop offset="1" stop-color="#6C30D7"/>
</linearGradient>
<linearGradient id="paint5_linear_935_4450" x1="33.425" y1="27.1149" x2="17.1562" y2="27.1149" gradientUnits="userSpaceOnUse">
<stop stop-color="#5B59EC"/>
<stop offset="1" stop-color="#6366F1"/>
</linearGradient>
<linearGradient id="paint6_linear_935_4450" x1="26.9484" y1="27.1149" x2="10.6797" y2="27.1149" gradientUnits="userSpaceOnUse">
<stop stop-color="#534CE7"/>
<stop offset="1" stop-color="#5B59EC"/>
</linearGradient>
<linearGradient id="paint7_linear_935_4450" x1="7.08299" y1="8.16206" x2="0" y2="8.16206" gradientUnits="userSpaceOnUse">
<stop stop-color="#6C30D7"/>
<stop offset="1" stop-color="#593FE0"/>
</linearGradient>
<linearGradient id="paint8_linear_935_4450" x1="14.9304" y1="5.0524" x2="14.9304" y2="10.8627" gradientUnits="userSpaceOnUse">
<stop stop-color="#593FE0"/>
<stop offset="1" stop-color="#534CE7"/>
</linearGradient>
<linearGradient id="paint9_linear_935_4450" x1="15.0071" y1="5.0524" x2="15.0071" y2="10.8627" gradientUnits="userSpaceOnUse">
<stop stop-color="#534CE7"/>
<stop offset="1" stop-color="#5B59EC"/>
</linearGradient>
</defs>
</svg>
