<svg width="25" height="28" viewBox="0 0 25 28" fill="none" xmlns="http://www.w3.org/2000/svg">
<path d="M11.0391 22.75V20.8056H18.8168V13.9028C18.8168 12.0069 18.1565 10.3987 16.8359 9.07812C15.5153 7.75752 13.9071 7.09722 12.0113 7.09722C10.1155 7.09722 8.50723 7.75752 7.18663 9.07812C5.86603 10.3987 5.20573 12.0069 5.20573 13.9028V19.8333H4.23351C3.69878 19.8333 3.24103 19.6429 2.86024 19.2622C2.47946 18.8814 2.28906 18.4236 2.28906 17.8889V15.9444C2.28906 15.6042 2.37413 15.2841 2.54427 14.9844C2.71441 14.6846 2.95341 14.4456 3.26128 14.2674L3.3342 12.9792C3.46383 11.8773 3.78385 10.8565 4.29427 9.91667C4.80469 8.97685 5.44473 8.15856 6.21441 7.46181C6.98409 6.76505 7.86719 6.22222 8.86372 5.83333C9.86024 5.44444 10.9094 5.25 12.0113 5.25C13.1131 5.25 14.1583 5.44444 15.1467 5.83333C16.1351 6.22222 17.0182 6.76099 17.796 7.44965C18.5738 8.13831 19.2138 8.95255 19.7161 9.89236C20.2185 10.8322 20.5425 11.853 20.6884 12.9549L20.7613 14.2188C21.0692 14.3646 21.3082 14.5833 21.4783 14.875C21.6484 15.1667 21.7335 15.4745 21.7335 15.7986V18.0347C21.7335 18.3588 21.6484 18.6667 21.4783 18.9583C21.3082 19.25 21.0692 19.4688 20.7613 19.6146V20.8056C20.7613 21.3403 20.5709 21.798 20.1901 22.1788C19.8093 22.5596 19.3516 22.75 18.8168 22.75H11.0391ZM9.09462 15.9444C8.81916 15.9444 8.58825 15.8513 8.40191 15.6649C8.21557 15.4786 8.1224 15.2477 8.1224 14.9722C8.1224 14.6968 8.21557 14.4659 8.40191 14.2795C8.58825 14.0932 8.81916 14 9.09462 14C9.37008 14 9.60098 14.0932 9.78733 14.2795C9.97367 14.4659 10.0668 14.6968 10.0668 14.9722C10.0668 15.2477 9.97367 15.4786 9.78733 15.6649C9.60098 15.8513 9.37008 15.9444 9.09462 15.9444ZM14.928 15.9444C14.6525 15.9444 14.4216 15.8513 14.2352 15.6649C14.0489 15.4786 13.9557 15.2477 13.9557 14.9722C13.9557 14.6968 14.0489 14.4659 14.2352 14.2795C14.4216 14.0932 14.6525 14 14.928 14C15.2034 14 15.4343 14.0932 15.6207 14.2795C15.807 14.4659 15.9002 14.6968 15.9002 14.9722C15.9002 15.2477 15.807 15.4786 15.6207 15.6649C15.4343 15.8513 15.2034 15.9444 14.928 15.9444ZM6.20226 14.4375C6.08883 12.7199 6.60735 11.2454 7.75781 10.0139C8.90828 8.78241 10.3423 8.16667 12.0599 8.16667C13.502 8.16667 14.77 8.62442 15.8637 9.53993C16.9575 10.4554 17.6178 11.6262 17.8446 13.0521C16.3701 13.0359 15.013 12.6389 13.7734 11.8611C12.5339 11.0833 11.5819 10.0301 10.9175 8.70139C10.6583 9.99768 10.1114 11.1522 9.27691 12.1649C8.44242 13.1777 7.41753 13.9352 6.20226 14.4375Z" fill="white"/>
</svg>
