<svg width="16" height="20" viewBox="0 0 16 20" fill="none" xmlns="http://www.w3.org/2000/svg">
<path d="M6.75694 13.1745L12.25 7.68142L10.8646 6.29601L6.75694 10.4036L4.71528 8.36198L3.32986 9.7474L6.75694 13.1745ZM7.77778 19.4453C5.52546 18.8782 3.66609 17.5859 2.19965 15.5686C0.733218 13.5512 0 11.3111 0 8.84809V2.91753L7.77778 0.000867844L15.5556 2.91753V8.84809C15.5556 11.3111 14.8223 13.5512 13.3559 15.5686C11.8895 17.5859 10.0301 18.8782 7.77778 19.4453ZM7.77778 17.4036C9.46296 16.8689 10.8565 15.7995 11.9583 14.1953C13.0602 12.5911 13.6111 10.8087 13.6111 8.84809V4.25434L7.77778 2.06684L1.94444 4.25434V8.84809C1.94444 10.8087 2.49537 12.5911 3.59722 14.1953C4.69907 15.7995 6.09259 16.8689 7.77778 17.4036Z" fill="white"/>
</svg>
