<svg width="20" height="16" viewBox="0 0 20 16" fill="none" xmlns="http://www.w3.org/2000/svg">
<path d="M1.94444 15.5557C1.40972 15.5557 0.951968 15.3653 0.571181 14.9845C0.190394 14.6037 0 14.1459 0 13.6112V1.94455C0 1.40983 0.190394 0.952076 0.571181 0.571289C0.951968 0.190502 1.40972 0.000108719 1.94444 0.000108719H17.5C18.0347 0.000108719 18.4925 0.190502 18.8733 0.571289C19.2541 0.952076 19.4444 1.40983 19.4444 1.94455V13.6112C19.4444 14.1459 19.2541 14.6037 18.8733 14.9845C18.4925 15.3653 18.0347 15.5557 17.5 15.5557H1.94444ZM1.94444 13.6112H12.1528V10.2084H1.94444V13.6112ZM14.0972 13.6112H17.5V4.86122H14.0972V13.6112ZM1.94444 8.264H12.1528V4.86122H1.94444V8.264Z" fill="#A855F7"/>
</svg>
