<svg width="25" height="28" viewBox="0 0 25 28" fill="none" xmlns="http://www.w3.org/2000/svg">
<path d="M6.17882 23.7227C5.6441 23.7227 5.18634 23.5323 4.80556 23.1515C4.42477 22.7707 4.23438 22.3129 4.23438 21.7782V10.1115C4.23438 9.57682 4.42477 9.11907 4.80556 8.73828C5.18634 8.35749 5.6441 8.1671 6.17882 8.1671H8.12326C8.12326 7.09766 8.50405 6.18215 9.26562 5.42057C10.0272 4.659 10.9427 4.27821 12.0122 4.27821C13.0816 4.27821 13.9971 4.659 14.7587 5.42057C15.5203 6.18215 15.901 7.09766 15.901 8.1671H17.8455C18.3802 8.1671 18.838 8.35749 19.2188 8.73828C19.5995 9.11907 19.7899 9.57682 19.7899 10.1115V21.7782C19.7899 22.3129 19.5995 22.7707 19.2188 23.1515C18.838 23.5323 18.3802 23.7227 17.8455 23.7227H6.17882ZM6.17882 21.7782H17.8455V10.1115H15.901V12.056C15.901 12.3315 15.8079 12.5624 15.6215 12.7487C15.4352 12.935 15.2043 13.0282 14.9288 13.0282C14.6534 13.0282 14.4225 12.935 14.2361 12.7487C14.0498 12.5624 13.9566 12.3315 13.9566 12.056V10.1115H10.0677V12.056C10.0677 12.3315 9.97454 12.5624 9.78819 12.7487C9.60185 12.935 9.37095 13.0282 9.09549 13.0282C8.82002 13.0282 8.58912 12.935 8.40278 12.7487C8.21644 12.5624 8.12326 12.3315 8.12326 12.056V10.1115H6.17882V21.7782ZM10.0677 8.1671H13.9566C13.9566 7.63238 13.7662 7.17462 13.3854 6.79384C13.0046 6.41305 12.5469 6.22266 12.0122 6.22266C11.4774 6.22266 11.0197 6.41305 10.6389 6.79384C10.2581 7.17462 10.0677 7.63238 10.0677 8.1671Z" fill="#6366F1"/>
</svg>
